:version 1.10
:name ASF
:units
  mass 1
  length 1
  angle deg
:documentation
  ASF file generated by Kaydara
:root
  axis xyz
  order  tx ty tz rx ry rz
  position 0 0 0
  orientation 0 0 0
:bonedata
  begin
    id 1
    name RightUpLegDummy
    direction -0.718183 -0.695806 0.00816078
    length 4.904
    axis 0 0 0 xyz
  end
  begin
    id 2
    name RightUpLeg
    direction -0.0736652 -0.994202 0.0783343
    length 17.4976
    axis -2.72909 -3.00389 -4.00133 xyz
    dof rx ry rz
  end
  begin
    id 3
    name RightLeg
    direction -0.0389037 -0.994596 -0.0962598
    length 16.5821
    axis 3.95836 -18.5909 -4.46993 xyz
    dof rx ry rz
  end
  begin
    id 4
    name RightFoot
    direction -0.311643 -0.412678 0.855906
    length 3.77069
    axis -1.99483 -18.8351 -3.27644 xyz
    dof rx ry rz
  end
  begin
    id 5
    name RightToes
    direction -0.317852 0.0389852 0.947339
    length 3.85082
    axis -2.00228 -18.1713 -3.25211 xyz
    dof rx ry rz
  end
  begin
    id 6
    name SpineDummy
    direction 8.3039e-015 1 4.44677e-016
    length 4.6813
    axis 0 0 0 xyz
  end
  begin
    id 7
    name Spine
    direction -0.000262373 0.999988 0.00493267
    length 10.1015
    axis -0.00246081 0.00062579 0.0150362 xyz
    dof rx ry rz
  end
  begin
    id 8
    name Spine1
    direction 0 0 0
    length 0
    axis -0.00349562 0.000650293 0.0196666 xyz
    dof rx ry rz
  end
  begin
    id 9
    name HEadDummy
    direction -0.000343232 0.999999 0.00123745
    length 3.43865
    axis -0.00349562 0.000650293 0.0196666 xyz
  end
  begin
    id 10
    name HEad
    direction -0.0461221 0.980933 0.188796
    length 5.12695
    axis -0.00351404 -7.04812 0.0199272 xyz
    dof rx ry rz
  end
  begin
    id 11
    name LeftShoulder1Dummy
    direction 0.998904 -0.0399089 -0.0244534
    length 3.5433
    axis -0.00349562 0.000650293 0.0196666 xyz
  end
  begin
    id 12
    name LeftShoulder1
    direction 0.99951 1.64443e-005 0.0312999
    length 4.05031
    axis -0.00349562 0.000650293 0.0196666 xyz
    dof rx ry rz
  end
  begin
    id 13
    name LeftArm
    direction 0.984791 0.0515299 0.165927
    length 12.9126
    axis -64.823 -10.7743 5.20463 xyz
    dof rx ry rz
  end
  begin
    id 14
    name LeftForeArm
    direction 0.984968 0.0534808 0.16425
    length 10.8596
    axis -30.0462 -7.70601 1.87451 xyz
    dof rx ry rz
  end
  begin
    id 15
    name LeftHand
    direction 0.975871 0.0289682 0.216418
    length 6.62295
    axis -20.1348 -6.98077 1.86072 xyz
    dof rx ry rz
  end
  begin
    id 16
    name RightShoulderDummy
    direction -0.998877 -0.0405946 -0.0244307
    length 3.5433
    axis -0.00349562 0.000650293 0.0196666 xyz
  end
  begin
    id 17
    name RightShoulder
    direction -0.998933 -0.0249743 -0.0388558
    length 4.05031
    axis -0.0205316 -4.02113 1.41395 xyz
    dof rx ry rz
  end
  begin
    id 18
    name RightArm
    direction -0.997559 0.068664 0.0127103
    length 12.9638
    axis -67.3882 1.84188 -6.15987 xyz
    dof rx ry rz
  end
  begin
    id 19
    name RightForeArm
    direction -0.991508 0.0912848 0.0926241
    length 10.8312
    axis -22.1975 3.41087 -4.28711 xyz
    dof rx ry rz
  end
  begin
    id 20
    name RightHand
    direction -0.989262 0.0600788 0.133232
    length 6.57864
    axis -12.2911 2.17515 -4.39675 xyz
    dof rx ry rz
  end
  begin
    id 21
    name LeftUpLegDummy
    direction 0.718183 -0.695806 0.00816078
    length 4.904
    axis 0 0 0 xyz
  end
  begin
    id 22
    name LeftUpLeg
    direction 0.0831398 -0.99469 0.0606531
    length 17.4976
    axis -1.71016 2.29552 4.63832 xyz
    dof rx ry rz
  end
  begin
    id 23
    name LeftLeg
    direction 0.0498442 -0.991778 -0.117862
    length 16.5821
    axis 5.13757 15.5727 5.13348 xyz
    dof rx ry rz
  end
  begin
    id 24
    name LeftFoot
    direction 0.269026 -0.433896 0.85986
    length 3.77069
    axis -0.576502 15.6961 4.10267 xyz
    dof rx ry rz
  end
  begin
    id 25
    name LeftToes
    direction 0.277311 0.0251143 0.960452
    length 3.85048
    axis -0.576502 15.6961 4.10267 xyz
    dof rx ry rz
  end
:hierarchy
  begin
    root RightUpLegDummy SpineDummy LeftUpLegDummy
    RightUpLegDummy RightUpLeg
    RightUpLeg RightLeg
    RightLeg RightFoot
    RightFoot RightToes
    SpineDummy Spine
    Spine Spine1
    Spine1 HEadDummy LeftShoulder1Dummy RightShoulderDummy
    HEadDummy HEad
    LeftShoulder1Dummy LeftShoulder1
    LeftShoulder1 LeftArm
    LeftArm LeftForeArm
    LeftForeArm LeftHand
    RightShoulderDummy RightShoulder
    RightShoulder RightArm
    RightArm RightForeArm
    RightForeArm RightHand
    LeftUpLegDummy LeftUpLeg
    LeftUpLeg LeftLeg
    LeftLeg LeftFoot
    LeftFoot LeftToes
  end

:SAMPLES-PER-SECOND 30
:FULLY-SPECIFIED
:DEGREES
16
root  2.43524 39.886 -81.5945 -1.15732 -9.15702 0.448864
RightUpLeg  -2.9201 -0.176977 2.82557
RightLeg  6.71609 -4.10628 -0.503783
RightFoot  -3.93632 0.13153 -1.54555
RightToes  5.82077e-011 -3.18055e-015 -2.98177e-016
Spine  -0.676115 1.44482 0.0251968
Spine1  10.3434 1.35474 1.1818
HEad  -17.1304 6.38973 0.437327
LeftShoulder1  -3.88251e-019 9.70628e-020 -3.87848e-018
LeftArm  -26.8007 53.3792 -70.7838
LeftForeArm  5.00317 -11.7071 -2.7237
LeftHand  -0.561343 -1.60991 10.0229
RightShoulder  7.78567 10.6101 36.6466
RightArm  5.3128 -39.8836 18.6623
RightForeArm  15.918 15.6686 -7.5176
RightHand  -0.929688 3.02119 -12.6961
LeftUpLeg  -2.18349 -2.9579 -2.36831
LeftLeg  5.70041 7.32306 4.16781
LeftFoot  -3.11519 0.09551 -1.19271
LeftToes  9.37148e-011 4.50685e-012 -4.11107e-011
17
root  2.35583 39.8459 -81.6452 -1.19326 -9.63405 0.55735
RightUpLeg  -3.6007 -0.289938 2.86383
RightLeg  7.88009 -3.54361 -0.828023
RightFoot  -4.44792 0.126912 -1.55146
RightToes  5.82077e-011 -3.18055e-015 -2.98177e-016
Spine  -0.190304 1.43145 0.0453885
Spine1  10.3965 1.40123 0.921969
HEad  -17.7965 6.56808 0.391994
LeftShoulder1  -3.88251e-019 9.70628e-020 -3.87848e-018
LeftArm  -26.3477 53.2619 -70.4311
LeftForeArm  4.95339 -11.5454 -2.82898
LeftHand  -0.591162 -1.62494 10.5263
RightShoulder  7.80477 10.6255 36.707
RightArm  5.15741 -39.566 19.1606
RightForeArm  16.1145 15.5988 -7.44105
RightHand  -0.922458 2.93911 -12.7183
LeftUpLeg  -2.44889 -2.79907 -2.28001
LeftLeg  6.31867 7.57014 4.32512
LeftFoot  -3.36151 0.120881 -1.52628
LeftToes  9.37148e-011 4.50685e-012 -4.11107e-011
18
root  2.24823 39.8005 -81.7082 -1.33408 -10.1672 0.735028
RightUpLeg  -4.21864 -0.640067 2.93681
RightLeg  9.05123 -2.68954 -1.23284
RightFoot  -4.99186 0.122686 -1.56851
RightToes  5.82077e-011 -3.18055e-015 -2.98177e-016
Spine  0.430255 1.44964 -0.182677
Spine1  10.5293 1.41274 0.951369
HEad  -18.531 6.72361 0.218053
LeftShoulder1  -3.88251e-019 9.70628e-020 -3.87848e-018
LeftArm  -25.8855 52.991 -70.1455
LeftForeArm  5.23126 -11.3153 -2.94741
LeftHand  -0.587574 -1.51686 10.6301
RightShoulder  7.78623 10.6184 36.6306
RightArm  5.18394 -39.2297 19.7434
RightForeArm  16.0844 15.7011 -7.4364
RightHand  -0.918711 2.87982 -12.7545
LeftUpLeg  -2.61638 -2.633 -2.21422
LeftLeg  6.94256 7.80773 4.4853
LeftFoot  -3.60699 0.139369 -1.79608
LeftToes  9.37148e-011 4.50685e-012 -4.11107e-011
19
root  2.12504 39.7539 -81.7821 -1.4806 -10.5888 0.973015
RightUpLeg  -4.79994 -1.14571 2.99501
RightLeg  10.1268 -1.75431 -1.61252
RightFoot  -5.518 0.12339 -1.65819
RightToes  5.82077e-011 -3.18055e-015 -2.98177e-016
Spine  1.16593 1.4196 -0.479797
Spine1  10.6041 1.34634 1.09879
HEad  -19.2092 6.85643 -0.0963486
LeftShoulder1  -3.88251e-019 9.70628e-020 -3.87848e-018
LeftArm  -25.5885 52.647 -69.9473
LeftForeArm  5.76792 -11.0464 -3.0213
LeftHand  -0.603324 -1.70986 10.6053
RightShoulder  7.74981 10.6003 36.4896
RightArm  5.29618 -38.9061 20.3227
RightForeArm  15.8919 15.9162 -7.50817
RightHand  -0.940141 3.02978 -12.8245
LeftUpLeg  -2.79638 -2.62953 -2.23791
LeftLeg  7.50453 8.12333 4.72247
LeftFoot  -3.72208 0.151753 -1.97316
LeftToes  9.37148e-011 4.50685e-012 -4.11107e-011
20
root  1.98872 39.7054 -81.8579 -1.48201 -10.8595 1.17511
RightUpLeg  -5.4423 -1.58715 3.10944
RightLeg  11.0678 -1.02462 -1.92361
RightFoot  -5.9849 0.128538 -1.81949
RightToes  5.82077e-011 -3.18055e-015 -2.98177e-016
Spine  1.86885 1.3027 -0.554312
Spine1  10.5739 1.22692 1.1134
HEad  -19.6554 7.08228 -0.416669
LeftShoulder1  -3.88251e-019 9.70628e-020 -3.87848e-018
LeftArm  -25.3343 52.3834 -69.7684
LeftForeArm  6.18541 -10.9585 -3.08253
LeftHand  -0.678075 -2.17116 11.1503
RightShoulder  7.71955 10.5874 36.3673
RightArm  5.46798 -38.6546 20.8386
RightForeArm  15.6158 16.1815 -7.6286
RightHand  -0.967862 3.21413 -12.9257
LeftUpLeg  -3.18206 -2.7479 -2.23794
LeftLeg  8.11519 8.4554 5.05107
LeftFoot  -3.80354 0.169477 -2.21186
LeftToes  9.37148e-011 4.50685e-012 -4.11107e-011
21
root  1.8333 39.6525 -81.9296 -1.27251 -11.1131 1.28027
RightUpLeg  -6.21051 -1.78596 3.36331
RightLeg  11.8818 -0.600258 -2.19334
RightFoot  -6.39589 0.133454 -1.98624
RightToes  5.82077e-011 -3.18055e-015 -2.98177e-016
Spine  2.44056 1.19153 -0.306527
Spine1  10.4767 1.17061 0.941533
HEad  -19.8442 7.3829 -0.647188
LeftShoulder1  -3.88251e-019 9.70628e-020 -3.87848e-018
LeftArm  -25.0367 52.2139 -69.6296
LeftForeArm  6.30023 -11.1967 -3.15145
LeftHand  -0.758111 -2.43175 12.0264
RightShoulder  7.70558 10.583 36.3072
RightArm  5.75636 -38.4962 21.2011
RightForeArm  15.2495 16.4882 -7.7887
RightHand  -0.973124 3.21977 -12.9868
LeftUpLeg  -3.85041 -2.76639 -2.06474
LeftLeg  8.89014 8.59969 5.37666
LeftFoot  -4.03374 0.198649 -2.64506
LeftToes  9.37148e-011 4.50685e-012 -4.11107e-011
22
root  1.66255 39.5912 -82.0092 -0.919824 -11.3665 1.30351
RightUpLeg  -7.08742 -1.74203 3.72759
RightLeg  12.642 -0.443242 -2.43972
RightFoot  -6.78944 0.136912 -2.14412
RightToes  5.82077e-011 -3.18055e-015 -2.98177e-016
Spine  3.02573 1.1647 0.210759
Spine1  10.3208 1.24152 0.672197
HEad  -20.0037 7.55208 -0.80002
LeftShoulder1  -3.88251e-019 9.70628e-020 -3.87848e-018
LeftArm  -24.7797 51.9509 -69.6145
LeftForeArm  6.17037 -11.6638 -3.18807
LeftHand  -0.783366 -2.38875 12.4858
RightShoulder  7.70823 10.5819 36.3229
RightArm  6.17326 -38.4001 21.364
RightForeArm  14.6376 16.8565 -8.0071
RightHand  -0.964218 3.11826 -13.0174
LeftUpLeg  -4.7869 -2.66405 -1.7366
LeftLeg  9.89696 8.5418 5.71606
LeftFoot  -4.36364 0.233852 -3.21645
LeftToes  9.37148e-011 4.50685e-012 -4.11107e-011
23
root  1.49393 39.5078 -82.1181 -0.487251 -11.3934 1.22376
RightUpLeg  -8.10223 -1.66257 4.13885
RightLeg  13.5565 -0.505327 -2.6361
RightFoot  -7.24324 0.140488 -2.34447
RightToes  5.82077e-011 -3.18055e-015 -2.98177e-016
Spine  3.91649 1.12685 1.03604
Spine1  9.95596 1.31995 0.410321
HEad  -20.2945 7.48971 -0.893719
LeftShoulder1  -3.88251e-019 9.70628e-020 -3.87848e-018
LeftArm  -24.5724 51.5182 -69.7074
LeftForeArm  5.78675 -12.3126 -3.16907
LeftHand  -0.779203 -2.36029 12.4667
RightShoulder  7.70029 10.5737 36.3016
RightArm  6.64589 -38.3927 21.4728
RightForeArm  13.6751 17.2509 -8.24722
RightHand  -0.973105 3.06175 -13.22
LeftUpLeg  -6.13074 -2.7219 -1.31399
LeftLeg  11.3935 8.47161 6.27512
LeftFoot  -4.71703 0.263288 -3.76636
LeftToes  9.37148e-011 4.50685e-012 -4.11107e-011
24
root  1.34315 39.3794 -82.2557 0.0666284 -11.0335 0.958385
RightUpLeg  -9.39247 -1.76508 4.61004
RightLeg  14.8799 -0.739279 -2.77003
RightFoot  -7.86476 0.141863 -2.59817
RightToes  5.82077e-011 -3.18055e-015 -2.98177e-016
Spine  5.16352 0.940128 2.33317
Spine1  9.26003 1.26207 0.19023
HEad  -20.6 7.30505 -0.874784
LeftShoulder1  -3.88251e-019 9.70628e-020 -3.87848e-018
LeftArm  -24.1837 51.0694 -69.765
LeftForeArm  5.3357 -13.3066 -3.13585
LeftHand  -0.782758 -2.51514 12.2734
RightShoulder  7.65345 10.5542 36.1104
RightArm  7.10699 -38.4862 21.6799
RightForeArm  12.6144 17.5527 -8.39259
RightHand  -1.00587 3.04624 -13.6835
LeftUpLeg  -8.11195 -2.95611 -0.709687
LeftLeg  13.7234 8.18936 7.10379
LeftFoot  -5.3816 0.274845 -4.2923
LeftToes  9.37148e-011 4.50685e-012 -4.11107e-011
25
root  1.21515 39.2025 -82.3941 0.731268 -10.4995 0.506437
RightUpLeg  -10.9491 -2.03952 5.17978
RightLeg  16.605 -1.01797 -2.90076
RightFoot  -8.66832 0.137057 -2.86219
RightToes  5.82077e-011 -3.18055e-015 -2.98177e-016
Spine  6.44471 0.677745 4.17459
Spine1  8.49431 1.18651 -0.146927
HEad  -20.805 7.04238 -0.656636
LeftShoulder1  -3.88251e-019 9.70628e-020 -3.87848e-018
LeftArm  -23.3232 50.6286 -69.6841
LeftForeArm  5.34328 -14.6832 -3.12106
LeftHand  -0.76948 -2.70609 11.7785
RightShoulder  7.61611 10.5502 35.9316
RightArm  7.53884 -38.4449 21.7987
RightForeArm  11.9235 17.6649 -8.36543
RightHand  -1.0354 3.0468 -14.0794
LeftUpLeg  -10.5548 -2.69054 0.100015
LeftLeg  16.6878 7.04153 7.90457
LeftFoot  -6.6557 0.265752 -5.05577
LeftToes  9.37148e-011 4.50685e-012 -4.11107e-011
26
root  1.11085 39.0144 -82.5143 1.27253 -10.2151 0.0171232
RightUpLeg  -12.403 -2.32904 5.81735
RightLeg  18.3421 -1.08086 -3.10902
RightFoot  -9.46971 0.128446 -3.12101
RightToes  5.82077e-011 -3.18055e-015 -2.98177e-016
Spine  7.55604 0.535284 6.24386
Spine1  8.13787 1.31221 -0.687062
HEad  -21.0253 6.67542 -0.337889
LeftShoulder1  -3.88251e-019 9.70628e-020 -3.87848e-018
LeftArm  -21.9188 50.0747 -69.6412
LeftForeArm  5.60124 -16.3027 -3.02104
LeftHand  -0.712565 -2.76294 10.8458
RightShoulder  7.61582 10.566 35.8949
RightArm  7.6997 -37.9783 21.7903
RightForeArm  11.9792 17.5605 -8.1969
RightHand  -1.04322 3.11561 -14.0737
LeftUpLeg  -12.7407 -1.65704 0.895216
LeftLeg  19.5398 5.45273 8.46753
LeftFoot  -8.18121 0.244112 -6.20728
LeftToes  9.37148e-011 4.50685e-012 -4.11107e-011
